<svg id="Capa_1" data-name="Capa 1" xmlns="http://www.w3.org/2000/svg" viewBox="0 0 60 60"><defs><style>.cls-1{fill:none;stroke:#000;stroke-miterlimit:10;stroke-width:0.75px;}</style></defs><path class="cls-1" d="M58.12,1.39a1,1,0,0,0-1.36,0L53.19,5H30.77L2.59,33.38a3.39,3.39,0,0,0,0,4.81l19.7,19.7a3.37,3.37,0,0,0,2.4,1,3.41,3.41,0,0,0,2.42-1L54.55,29.7V6.32l3.57-3.56A1,1,0,0,0,58.12,1.39ZM47.5,15a3,3,0,1,1-3-3,2.9,2.9,0,0,1,1.28.3l-2,2a1,1,0,0,0,0,1.42,1,1,0,0,0,1.42,0l2-2A2.9,2.9,0,0,1,47.5,15Z"/></svg>